<svg viewBox="0 0 600 420" xmlns="http://www.w3.org/2000/svg"><path fill="#b5b5b5" d="M0,0v420h600V0z"/><path fill="#fff" d="M16,16H584v388H16z"/><path fill="#E2E2E2" d="M33,33h534v353H33z"/><polygon fill="#B5B5B5" points="33 296 200 132 358 296 442 206 567 337 567 386 33 386"/><g transform="translate(290, 99)" fill="#B5B5B5" stroke="#B5B5B5"><path d="M141,22C143,25 143,28 141,31C123,51 99,53 78,53C56,52 36,47 29,45C19,41 9,35 0,27C0,27 0,26 0,25C9,17 19,12 29,8C36,6 56,1 78,0C99,0 130,2 141,22Z" stroke-width="4"/><path d="M71,49C67,49 63,48 59,48 L59,63 L89,63 L89,48 C83,49 77,49 71,49 Z" stroke-width="4"/><path d="M16,38L17,53L26,53C31,53 36,50 39,46" stroke-width="3"/><path d="M16,16L17,0L26,0C31,1 36,4 38,8" stroke-width="3"/></g></svg>