<svg xmlns="http://www.w3.org/2000/svg" viewBox="0 0 224 180"><defs><style>.a{fill:#e2e2e2;}.b{fill:#b7b7b7;}</style></defs><title>imageGroup</title><path class="a" d="M45 46h56v38H45z"/><path class="b" d="M45 73.1V84h56V73l-9-9-9 9-19-18-19 18.1"/><g id="blimpIcon"><g id="Layer_1"><g id="Group"><g id="blimpIcon"><g id="Layer_1"><g id="Group" stroke="#B5B5B5" fill="#B5B5B5"><path d="M89.966 52.427c.213.355.213.814 0 1.17-1.368 2.307-5.027 2.617-7.605 2.558-2.69-.06-5.012-.68-5.838-.976-1.21-.445-2.492-1.17-3.432-2.087-.086-.074-.086-.192 0-.266.94-.918 2.207-1.554 3.432-1.983.826-.296 3.147-.917 5.84-.976 2.577-.06 6.236.25 7.604 2.56z" id="Shape" stroke-width=".86"/><path d="M81.545 55.7c-.507-.022-.995-.043-1.466-.084v1.8h3.6v-1.76c-.742.063-1.466.063-2.135.043z" id="Shape" stroke-width=".86"/><path d="M74.895 54.4l.16 1.8 1.048-.03c.64-.022 1.22-.355 1.492-.844M74.895 51.7l.16-1.8 1.048.03c.64.022 1.22.355 1.492.844" id="Shape" stroke-width=".688"/></g></g></g></g></g></g><path class="b" d="M105 42v46H41V42h64m4-4H37v54h72V38z"/><path class="a" d="M123 46h56v38h-56z"/><path class="b" d="M123 73.1V84h56V73l-9-9-9 9-19-18-19 18.1"/><g id="blimpIcon"><g id="Layer_1"><g id="Group"><g id="blimpIcon"><g id="Layer_1"><g id="Group" stroke="#B5B5B5" fill="#B5B5B5"><path d="M167.966 52.427c.213.355.213.814 0 1.17-1.368 2.307-5.027 2.617-7.605 2.558-2.69-.06-5.012-.68-5.838-.976-1.21-.445-2.492-1.17-3.432-2.087-.086-.074-.086-.192 0-.266.94-.918 2.207-1.554 3.432-1.983.826-.296 3.147-.917 5.84-.976 2.577-.06 6.236.25 7.604 2.56z" id="Shape" stroke-width=".86"/><path d="M159.545 55.7c-.507-.022-.995-.043-1.466-.084v1.8h3.6v-1.76c-.742.063-1.466.063-2.135.043z" id="Shape" stroke-width=".86"/><path d="M152.895 54.4l.16 1.8 1.048-.03c.64-.022 1.22-.355 1.492-.844M152.895 51.7l.16-1.8 1.048.03c.64.022 1.22.355 1.492.844" id="Shape" stroke-width=".688"/></g></g></g></g></g></g><path class="b" d="M183 42v46h-64V42h64m4-4h-72v54h72V38z"/><path class="a" d="M45 106h56v38H45z"/><path class="b" d="M45 133.1V144h56v-11l-9-9-9 9-19-18-19 18.1"/><g id="blimpIcon"><g id="Layer_1"><g id="Group"><g id="blimpIcon"><g id="Layer_1"><g id="Group" stroke="#B5B5B5" fill="#B5B5B5"><path d="M89.966 112.427c.213.355.213.814 0 1.17-1.368 2.307-5.027 2.617-7.605 2.558-2.69-.06-5.012-.68-5.838-.976-1.21-.445-2.492-1.17-3.432-2.087-.086-.074-.086-.192 0-.266.94-.918 2.207-1.554 3.432-1.983.826-.296 3.147-.917 5.84-.976 2.577-.06 6.236.25 7.604 2.56z" id="Shape" stroke-width=".86"/><path d="M81.545 115.7c-.507-.022-.995-.043-1.466-.084v1.8h3.6v-1.76c-.742.063-1.466.063-2.135.043z" id="Shape" stroke-width=".86"/><path d="M74.895 114.4l.16 1.8 1.048-.03c.64-.022 1.22-.355 1.492-.844M74.895 111.7l.16-1.8 1.048.03c.64.022 1.22.355 1.492.844" id="Shape" stroke-width=".688"/></g></g></g></g></g></g><path class="b" d="M105 102v46H41v-46h64m4-4H37v54h72V98z"/><path class="a" d="M123 106h56v38h-56z"/><path class="b" d="M123 133.1V144h56v-11l-9-9-9 9-19-18-19 18.1"/><g id="blimpIcon"><g id="Layer_1"><g id="Group"><g id="blimpIcon"><g id="Layer_1"><g id="Group" stroke="#B5B5B5" fill="#B5B5B5"><path d="M167.966 112.427c.213.355.213.814 0 1.17-1.368 2.307-5.027 2.617-7.605 2.558-2.69-.06-5.012-.68-5.838-.976-1.21-.445-2.492-1.17-3.432-2.087-.086-.074-.086-.192 0-.266.94-.918 2.207-1.554 3.432-1.983.826-.296 3.147-.917 5.84-.976 2.577-.06 6.236.25 7.604 2.56z" id="Shape" stroke-width=".86"/><path d="M159.545 115.7c-.507-.022-.995-.043-1.466-.084v1.8h3.6v-1.76c-.742.063-1.466.063-2.135.043z" id="Shape" stroke-width=".86"/><path d="M152.895 114.4l.16 1.8 1.048-.03c.64-.022 1.22-.355 1.492-.844M152.895 111.7l.16-1.8 1.048.03c.64.022 1.22.355 1.492.844" id="Shape" stroke-width=".688"/></g></g></g></g></g></g><path class="b" d="M183 102v46h-64v-46h64m4-4h-72v54h72V98z"/></svg>