<svg xmlns="http://www.w3.org/2000/svg" viewBox="0 0 224 180"><defs><style>.a{fill:#b6b6ba;}</style></defs><title>socialShare</title><path class="a" d="M97.9,52a20.9,20.9,0,0,1,.1,2.5,26,26,0,1,1-26.5-26,41.17,41.17,0,0,1,6.6-3.4,30,30,0,1,0,23.3,35.5,30.69,30.69,0,0,0,.1-11.7Z"/><path class="a" d="M152,24.5a30,30,0,1,0,30,30A30,30,0,0,0,152,24.5Zm8,20h-3c-2.2,0-3,1.1-3,2.6v3.4h6l-1,5h-5v14h-5v-14h-5v-5h5v-4c0-4.6,2.6-7,6.7-7,1.4,0,2.9.1,4.3.2Z"/><path class="a" d="M152,102.5a30,30,0,1,0,30,30,30,30,0,0,0-30-30Zm15,32v10h-6.2v-10a3.64,3.64,0,0,0-3.3-3.8h-.4c-2.5,0-3.8,1.3-3.8,2.5v11.3H147v-19h6.2v2.8c.1-.4,1.7-2.5,6.2-2.5C163.6,125.7,167,128.7,167,134.5Zm-30-9h6.2v19H137Zm6.2-5.4a2.89,2.89,0,0,1-2.9,3.1H140a3.1,3.1,0,1,1,0-6.2A3.08,3.08,0,0,1,143.2,120.1Z"/><path class="a" d="M72,102.5a30,30,0,1,0,30,30,30,30,0,0,0-30-30ZM85.6,123a7,7,0,0,0,3.2-.6,6.63,6.63,0,0,1-3.2,3.2c0,.3-.1.9-.1,1.2,0,9.2-6.4,19.7-19.4,19.7a20.44,20.44,0,0,1-11-3.2c3.9,0,7.1-.6,10.3-3.2-3.9.6-6.5-2.5-7.1-5.1a4.45,4.45,0,0,0,3.9,0c-6.5-.6-5.8-6.3-5.8-6.3a4,4,0,0,0,2.6.6c-1.9-1.2-3.9-5.1-1.9-9.5A21.11,21.11,0,0,0,72,127.4c-.7-1.9-.7-8.3,5.8-8.9,3.9-.4,5.2,1.3,5.8,2.6a14.87,14.87,0,0,0,4.5-1.9A5.05,5.05,0,0,1,85.6,123Z"/><path class="a" d="M60,61.5c2.4-4.1,5-17.5,28-19v10l20-17-20-17V28.7c-6.2.8-25,5.4-30,32.8Z"/></svg>